# xmcd CD database file
#
# Track frame offsets:
#	150
#	54985
#	87150
#	113839
#	134186
#	159891
#	190044
#	220846
#	259777
#
# Disc length: 3832 seconds
#
# Revision: 0
# Processed by: cddbd v1.5.1PL0 Copyright (c) Steve Scherf et al.
# Submitted via: CDex 1.51
#
DISCID=770ef609
DTITLE=Audrey and Allen Smith - Dancing Phoenix
DYEAR=1999
DGENRE=New Age
TTITLE0=Interdeimensional Toad Dreaming
TTITLE1=Song To Spirit
TTITLE2=Dancing Phoenix
TTITLE3=Hunn Ne Nu Wah
TTITLE4=Shaman's Duet
TTITLE5=Crystal Earth
TTITLE6=Before Us
TTITLE7=Stomp Trance
TTITLE8=Grace
EXTD=YEAR: 1999
EXTT0=
EXTT1=
EXTT2=
EXTT3=
EXTT4=
EXTT5=
EXTT6=
EXTT7=
EXTT8=
PLAYORDER=
